REM MD5 514614d9165af373dbabea00d7fae066
FILE "Hyper PlayStation Re-mix 1999 No. 9 (Japan) (Disc 1).bin" BINARY
  TRACK 01 MODE2/2352
    INDEX 01 00:00:00
  TRACK 02 AUDIO
    INDEX 00 47:13:03
    INDEX 01 47:16:03
  TRACK 03 AUDIO
    INDEX 00 47:20:53
    INDEX 01 47:23:53
REM LEADOUT 50:55:43
